<?xml version="1.0" encoding="utf-8"?>
<!-- Generator: Adobe Illustrator 15.0.0, SVG Export Plug-In . SVG Version: 6.00 Build 0)  -->
<!DOCTYPE svg PUBLIC "-//W3C//DTD SVG 1.1//EN" "http://www.w3.org/Graphics/SVG/1.1/DTD/svg11.dtd">
<svg version="1.1" id="Layer_1" xmlns="http://www.w3.org/2000/svg" xmlns:xlink="http://www.w3.org/1999/xlink" x="0px" y="0px"
	 width="110.771px" height="127.423px" viewBox="590.625 365.964 110.771 127.423"
	 style="enable-background:new 590.625 365.964 110.771 127.423;" xml:space="preserve">
<style type="text/css">
<![CDATA[
	.st0{fill:#70E6F2;}
]]>
</style>
<path class="st0" d="M696.128,402.667c-9.625-35.13-44.273-35.13-47.643-35.611c-3.368-0.481-49.086-0.962-55.342,50.725
	s51.011,60.439,63.522,36.378c12.513-24.062-1.312-36.378-1.312-36.378l-0.011,0.008c-2.109-3.962-6.536-6.7-11.671-6.7
	c-7.175,0-12.993,5.333-12.993,11.91c0,4.167,2.339,7.829,5.875,9.958c-0.702,4.1-2.025,7.728-2.025,7.728
	c-26.952,0.396-18.286-33.687-3.85-44.755c14.438-11.068,37.055-4.812,43.312,7.219c6.256,12.031,16.361,44.755-12.031,67.854
	c-28.393,23.099-61.598,5.774-61.598,5.774c11.068,10.106,36.573,22.618,64.967,6.737
	C693.722,467.634,705.752,437.798,696.128,402.667z"/>
</svg>
