<?xml version="1.0" encoding="utf-8"?>
<!-- Generator: Adobe Illustrator 15.0.0, SVG Export Plug-In . SVG Version: 6.00 Build 0)  -->
<!DOCTYPE svg PUBLIC "-//W3C//DTD SVG 1.1//EN" "http://www.w3.org/Graphics/SVG/1.1/DTD/svg11.dtd">
<svg version="1.1" id="Layer_1" xmlns="http://www.w3.org/2000/svg" xmlns:xlink="http://www.w3.org/1999/xlink" x="0px" y="0px"
	 width="319.027px" height="319.231px" viewBox="486.456 270.252 319.027 319.231"
	 style="enable-background:new 486.456 270.252 319.027 319.231;" xml:space="preserve">
<style type="text/css">
<![CDATA[
	.st0{fill:#FFFFFF;}
]]>
</style>
<path class="st0" d="M698,403c-10-36.5-46-36.5-49.5-37s-51-1-57.5,52.703s53,62.797,66,37.797s-1.363-37.797-1.363-37.797
	l-0.011,0.009c-2.192-4.117-6.791-6.962-12.126-6.962c-7.455,0-13.5,5.541-13.5,12.375c0,4.329,2.43,8.134,6.104,10.346
	c-0.73,4.26-2.104,8.029-2.104,8.029c-28.003,0.411-19-35-4-46.5s38.5-5,45,7.5s17,46.5-12.5,70.5s-64,6-64,6
	c11.5,10.5,38,23.5,67.5,7S708,439.5,698,403z"/>
<polygon class="st0" points="547.5,332 565.323,372.576 585.025,367.611 589.818,348.642 "/>
<polygon class="st0" points="743.633,331.623 702.731,348.684 707.327,368.477 727.695,374.038 "/>
<polygon class="st0" points="547.5,528.5 564.578,486.862 583.19,491.094 588.062,510.638 "/>
<path class="st0" d="M703.58,487.697l23.603-5.465c9.689-15.002,15.317-32.85,15.317-51.982c0-18.823-5.45-36.398-14.853-51.248
	l-24.012-6.142c14.736,14.709,23.863,35.007,23.863,57.39c0,44.802-36.561,81.25-81.5,81.25s-81.5-36.448-81.5-81.25
	c0-44.801,36.561-81.25,81.5-81.25c21.842,0,41.688,8.626,56.335,22.62l-4.424-22.476C682.913,339.562,665.096,334,646,334
	c-18.885,0-36.516,5.443-51.41,14.832L589.245,372l-24.02,5.649c-9.938,15.129-15.726,33.201-15.726,52.601
	c0,18.688,5.373,36.145,14.651,50.926l22.762,4.979l6.268,24.604c15.187,9.945,33.335,15.74,52.82,15.74
	c18.938,0,36.617-5.474,51.538-14.912L703.58,487.697z"/>
<polygon class="st0" points="707.706,491.944 702.839,511.409 744.5,528.5 726.656,487.951 "/>
<path class="st0" d="M646,326.274c13.586,0,26.523,2.82,38.261,7.896l-35.707-63.918l-39.066,63.184
	C620.756,328.824,633.084,326.274,646,326.274z"/>
<path class="st0" d="M541.604,431.124c0-13.587,2.821-26.524,7.896-38.261l-63.044,36.007l62.31,38.767
	C544.154,456.368,541.604,444.04,541.604,431.124z"/>
<path class="st0" d="M645.79,534.396c-13.587,0-26.524-2.822-38.261-7.896l37.841,62.983l36.933-62.249
	C671.034,531.846,658.706,534.396,645.79,534.396z"/>
<path class="st0" d="M750.396,429.043c0,13.587-2.822,26.524-7.896,38.261l62.983-37.841l-62.249-36.933
	C747.846,403.799,750.396,416.127,750.396,429.043z"/>
</svg>
